<svg version="1.1" xmlns="http://www.w3.org/2000/svg" xmlns:xlink="http://www.w3.org/1999/xlink" width="50px" height="50px" viewBox="0,0,255.99808,255.99808"><g fill="#edf8f5" fill-rule="nonzero" stroke="none" stroke-width="1" stroke-linecap="butt" stroke-linejoin="miter" stroke-miterlimit="10" stroke-dasharray="" stroke-dashoffset="0" font-family="none" font-weight="none" font-size="none" text-anchor="none" style="mix-blend-mode: normal"><g transform="scale(5.12,5.12)"><path d="M2,5.9375l-2,0.03125v0.09375v0.03125c-0.00781,0.19531 -0.22656,7.44531 3.21875,14.84375c3.40625,7.32031 10.64453,14.64844 24.78125,15v10.46875l1.59375,-1.21875l19,-14.375l1.0625,-0.8125l-1.0625,-0.8125l-19,-14.375l-1.59375,-1.21875v10.3125c-12.33984,-0.25391 -18.79687,-4.64453 -22.1875,-9.03125c-3.49219,-4.51953 -3.8125,-8.9375 -3.8125,-8.9375zM3.03125,14.21875c0.38672,0.63672 0.6875,1.26172 1.1875,1.90625c3.85156,4.98047 11.23047,9.875 24.78125,9.875h1v-8.375l16.34375,12.375l-16.34375,12.375v-8.375h-1c-14.16797,0 -20.71094,-6.9375 -23.96875,-13.9375c-0.94531,-2.03125 -1.55078,-3.98047 -2,-5.84375z"></path></g></g></svg>