<?xml version="1.0" standalone="no"?>
<!DOCTYPE svg PUBLIC "-//W3C//DTD SVG 20010904//EN"
 "http://www.w3.org/TR/2001/REC-SVG-20010904/DTD/svg10.dtd">
<svg version="1.0" xmlns="http://www.w3.org/2000/svg"
 width="96.000000pt" height="96.000000pt" viewBox="0 0 96.000000 96.000000"
 preserveAspectRatio="xMidYMid meet">

<g transform="translate(0.000000,96.000000) scale(0.100000,-0.100000)"
fill="#000000" stroke="none">
<path fill="#2cb742" d="M317 886 c-98 -27 -181 -113 -229 -235 -41 -105 -20 -305 42 -401 70
-108 154 -155 319 -177 164 -21 195 -12 297 91 130 132 169 235 144 384 -11
70 -62 188 -97 227 -37 42 -94 77 -153 96 -82 25 -259 34 -323 15z m272 -27
c172 -29 282 -181 283 -393 0 -85 -21 -142 -79 -215 -105 -132 -149 -161 -245
-161 -212 1 -352 67 -413 196 -27 57 -47 174 -43 254 2 61 9 88 36 142 35 72
93 137 144 164 59 31 184 36 317 13z"/>
<path fill="#2cb742" d="M383 760 c-70 -31 -104 -108 -65 -143 27 -25 44 -21 81 17 42 43 77
53 102 30 19 -17 25 -50 11 -70 -4 -6 -22 -19 -40 -28 -41 -21 -52 -49 -52
-131 0 -58 3 -66 25 -81 54 -35 110 16 84 78 -11 26 -9 31 34 77 137 146 2
334 -180 251z m142 -14 c93 -39 98 -156 11 -234 -37 -33 -37 -35 -31 -84 7
-48 -1 -67 -27 -68 -20 0 -38 36 -38 74 0 64 17 102 51 116 77 32 60 150 -21
150 -22 0 -43 -12 -76 -42 -42 -39 -46 -40 -62 -25 -15 16 -15 19 2 52 21 38
84 75 129 75 15 0 43 -6 62 -14z"/>
<path fill="#2cb742" d="M436 298 c-22 -32 -20 -64 6 -82 46 -32 98 -7 98 47 0 51 -75 76
-104 35z m65 -8 c43 -23 12 -78 -35 -60 -28 10 -32 21 -16 51 12 22 23 24 51
9z"/>
</g>
</svg>
